<svg xmlns="http://www.w3.org/2000/svg" width="199.339" height="199.339" viewBox="0 0 199.339 199.339">
  <g id="Group_250" data-name="Group 250" transform="translate(-614 -197)">
    <path id="Path_171" data-name="Path 171" d="M106.066,0,150,43.934v62.132L106.066,150H43.934L0,106.066V43.934L43.934,0Z" transform="translate(677.393 197) rotate(25)" fill="#846227"/>
    <path id="Path_170" data-name="Path 170" d="M2.871,0V-30.064h6.07V0ZM14.027-9.782l5.906-.574A7.205,7.205,0,0,0,22.1-5.988a6.542,6.542,0,0,0,4.4,1.395,6.761,6.761,0,0,0,4.419-1.241,3.691,3.691,0,0,0,1.487-2.9,2.737,2.737,0,0,0-.625-1.815,5,5,0,0,0-2.184-1.3q-1.066-.369-4.86-1.312-4.881-1.21-6.85-2.974a7.823,7.823,0,0,1-2.769-6.05,7.728,7.728,0,0,1,1.3-4.3,8.153,8.153,0,0,1,3.753-3.045,15.041,15.041,0,0,1,5.917-1.046q5.66,0,8.521,2.481a8.758,8.758,0,0,1,3,6.624l-6.07.267a5.155,5.155,0,0,0-1.671-3.333,6.12,6.12,0,0,0-3.845-1.015,6.936,6.936,0,0,0-4.143,1.087,2.19,2.19,0,0,0-.964,1.866,2.309,2.309,0,0,0,.9,1.825q1.148.964,5.578,2.01A29.437,29.437,0,0,1,33.95-16.6a8.445,8.445,0,0,1,3.322,3.056,8.937,8.937,0,0,1,1.2,4.789,8.854,8.854,0,0,1-1.436,4.84A8.6,8.6,0,0,1,32.976-.564a17.028,17.028,0,0,1-6.542,1.1q-5.7,0-8.757-2.635A11.463,11.463,0,0,1,14.027-9.782Zm29.161-5.065a19.121,19.121,0,0,1,1.374-7.711,14.149,14.149,0,0,1,2.8-4.122,11.7,11.7,0,0,1,3.886-2.707,16.505,16.505,0,0,1,6.48-1.189q6.645,0,10.633,4.122T72.35-14.991q0,7.28-3.958,11.392T57.81.513Q51.1.513,47.146-3.579T43.188-14.848Zm6.255-.205q0,5.106,2.358,7.742a7.684,7.684,0,0,0,5.988,2.635,7.618,7.618,0,0,0,5.958-2.615q2.328-2.615,2.328-7.844,0-5.168-2.266-7.711a7.668,7.668,0,0,0-6.019-2.543,7.718,7.718,0,0,0-6.05,2.574Q49.443-20.241,49.443-15.053Z" transform="translate(676.129 311)" fill="#fff"/>
  </g>
</svg>
