<svg xmlns="http://www.w3.org/2000/svg" width="41.552" height="16.688" viewBox="0 0 41.552 16.688">
  <g id="icon_wheat" transform="translate(0.225 0.462)">
    <path id="Path_11" data-name="Path 11" d="M432.839,46.708s-18.875-16.319-33.309-4.036" transform="translate(-391.839 -31.925)" fill="none" stroke="#846227" stroke-miterlimit="10" stroke-width="1"/>
    <path id="Path_77" data-name="Path 77" d="M2.38,0A2.523,2.523,0,0,0,0,2.645,2.523,2.523,0,0,0,2.38,5.29,2.523,2.523,0,0,0,4.76,2.645,2.523,2.523,0,0,0,2.38,0Z" transform="translate(19.938 6.667)" fill="none" stroke="#846227" stroke-width="1"/>
    <path id="Path_76" data-name="Path 76" d="M2.38,0A2.523,2.523,0,0,0,0,2.645,2.523,2.523,0,0,0,2.38,5.29,2.523,2.523,0,0,0,4.76,2.645,2.523,2.523,0,0,0,2.38,0Z" transform="translate(14.37 6.804)" fill="none" stroke="#846227" stroke-width="1"/>
    <path id="Path_75" data-name="Path 75" d="M2.38,0A2.523,2.523,0,0,0,0,2.645,2.523,2.523,0,0,0,2.38,5.29,2.523,2.523,0,0,0,4.76,2.645,2.523,2.523,0,0,0,2.38,0Z" transform="translate(8.98 8.57)" fill="none" stroke="#846227" stroke-width="1"/>
    <path id="Path_74" data-name="Path 74" d="M2.38,0A2.523,2.523,0,0,0,0,2.645,2.523,2.523,0,0,0,2.38,5.29,2.523,2.523,0,0,0,4.76,2.645,2.523,2.523,0,0,0,2.38,0Z" transform="translate(2.905 8.815)" fill="none" stroke="#846227" stroke-width="1"/>
    <path id="Path_73" data-name="Path 73" d="M2.38,0A2.523,2.523,0,0,0,0,2.645,2.523,2.523,0,0,0,2.38,5.29,2.523,2.523,0,0,0,4.76,2.645,2.523,2.523,0,0,0,2.38,0Z" transform="translate(6.372 3.459)" fill="none" stroke="#846227" stroke-width="1"/>
    <path id="Path_72" data-name="Path 72" d="M2.38,0A2.523,2.523,0,0,0,0,2.645,2.523,2.523,0,0,0,2.38,5.29,2.523,2.523,0,0,0,4.76,2.645,2.523,2.523,0,0,0,2.38,0Z" transform="translate(11.407 1.322)" fill="none" stroke="#846227" stroke-width="1"/>
    <path id="Path_71" data-name="Path 71" d="M2.38,0A2.523,2.523,0,0,0,0,2.645,2.523,2.523,0,0,0,2.38,5.29,2.523,2.523,0,0,0,4.76,2.645,2.523,2.523,0,0,0,2.38,0Z" transform="translate(17.262 0.495)" fill="none" stroke="#846227" stroke-width="1"/>
    <path id="Path_70" data-name="Path 70" d="M3.064,0,0,1.548" transform="translate(0 12.25)" fill="none" stroke="#846227" stroke-width="1"/>
    <path id="Path_69" data-name="Path 69" d="M2.261.942,0,0" transform="translate(4.154 4.2)" fill="none" stroke="#846227" stroke-width="1"/>
    <path id="Path_68" data-name="Path 68" d="M2.229.929,0,0" transform="translate(9.955 1.076)" fill="none" stroke="#846227" stroke-width="1"/>
    <path id="Path_67" data-name="Path 67" d="M2.261.942,0,0" transform="translate(16.093)" fill="none" stroke="#846227" stroke-width="1"/>
    <path id="Path_66" data-name="Path 66" d="M1.192,0,0,2.346" transform="translate(9.167 13.654)" fill="none" stroke="#846227" stroke-width="1"/>
    <path id="Path_65" data-name="Path 65" d="M1.022,0,0,2.428" transform="translate(14.916 12.003)" fill="none" stroke="#846227" stroke-width="1"/>
    <path id="Path_64" data-name="Path 64" d="M1.261,0,0,2.513" transform="translate(20.199 11.724)" fill="none" stroke="#846227" stroke-width="1"/>
  </g>
</svg>
