<svg xmlns="http://www.w3.org/2000/svg" width="30" height="30" viewBox="0 0 30 30"><defs><style>.a{fill:#846227;fill-rule:evenodd;}</style></defs><path class="a" d="M27.419,26.069V20.212c0-3.137-1.675-4.6-3.908-4.6A3.369,3.369,0,0,0,20.451,17.3V15.855h-3.4c.045.958,0,10.214,0,10.214h3.4v-5.7a2.315,2.315,0,0,1,.112-.827A1.857,1.857,0,0,1,22.3,18.3c1.229,0,1.72.937,1.72,2.309v5.465h3.395ZM13.479,14.461a1.77,1.77,0,1,0,.022-3.53,1.77,1.77,0,1,0-.044,3.53ZM19,34A15,15,0,1,1,34,19,15,15,0,0,1,19,34Zm-3.823-7.931V15.855H11.783V26.069Z" transform="translate(-4 -4)"/></svg>