<svg id="Layer_1" xmlns="http://www.w3.org/2000/svg" width="32" height="48" viewBox="0 0 32 48">
  <path id="Path_43" data-name="Path 43" d="M9,6V44a5.006,5.006,0,0,0,5,5H36a5.006,5.006,0,0,0,5-5V6a5.006,5.006,0,0,0-5-5H14A5.006,5.006,0,0,0,9,6Zm2,4H39V40H11ZM36,47H14a3,3,0,0,1-3-3V42H39v2A3,3,0,0,1,36,47ZM14,3H36a3,3,0,0,1,3,3V8H11V6A3,3,0,0,1,14,3Z" transform="translate(-9 -1)" fill="#846227"/>
  <rect id="Rectangle_13" data-name="Rectangle 13" width="9.899" height="2" transform="translate(6.292 27.293) rotate(-45)" fill="#846227"/>
  <rect id="Rectangle_14" data-name="Rectangle 14" width="19.799" height="2" transform="translate(10.293 32.292) rotate(-45)" fill="#846227"/>
  <rect id="Rectangle_15" data-name="Rectangle 15" width="5.657" height="2" transform="translate(15.293 18.293) rotate(-45)" fill="#846227"/>
</svg>
