<svg id="Group_36" data-name="Group 36" xmlns="http://www.w3.org/2000/svg" width="60" height="60" viewBox="0 0 60 60">
  <g id="iconfinder_social-56_1591869">
    <circle id="Ellipse_23" data-name="Ellipse 23" cx="30" cy="30" r="30" fill="#846227"/>
    <path id="Path_49" data-name="Path 49" d="M43.377,49.849c-1.15,1.068-2.29,2.119-3.42,3.178a1.827,1.827,0,0,1-1.406.548.71.71,0,0,1-.722-.532c-.865-2.562-1.743-5.117-2.6-7.681a.614.614,0,0,0-.471-.448Q31.7,44.024,28.648,43.1a3.552,3.552,0,0,1-.9-.394.6.6,0,0,1-.1-1.026,4.168,4.168,0,0,1,1.187-.708c2.492-.942,5-1.853,7.5-2.773l19.045-7.011c1.207-.445,2.135.182,2.01,1.427a20.566,20.566,0,0,1-.471,2.366Q54.848,44.289,52.772,53.6c-.329,1.474-1.414,1.858-2.686.964q-3.195-2.246-6.386-4.5C43.6,49.995,43.493,49.927,43.377,49.849ZM38.6,51.734l.072-.018a1.367,1.367,0,0,0,.038-.173c.137-1.407.281-2.814.4-4.223a1.017,1.017,0,0,1,.387-.748q2.945-2.511,5.87-5.041,3.246-2.792,6.485-5.591a1.72,1.72,0,0,0,.281-.471,1.916,1.916,0,0,0-.605-.053,2.7,2.7,0,0,0-.714.336q-7.165,4.3-14.329,8.607c-.27.162-.321.3-.218.582.352.965.673,1.939,1.005,2.912Z" transform="translate(-12 -13.477)" fill="#fff" fill-rule="evenodd"/>
  </g>
</svg>
