<svg xmlns="http://www.w3.org/2000/svg" width="30" height="30" viewBox="0 0 30 30">
  <g id="Group_109" data-name="Group 109" transform="translate(0.211)">
    <circle id="Ellipse_28" data-name="Ellipse 28" cx="15" cy="15" r="15" transform="translate(-0.211)" fill="#846227"/>
    <path id="iconfinder_03-twitter_104501" d="M19.574,11.865a6.532,6.532,0,0,1-1.885.517,3.288,3.288,0,0,0,1.443-1.816,6.572,6.572,0,0,1-2.084.8,3.285,3.285,0,0,0-5.593,2.993,9.321,9.321,0,0,1-6.766-3.429A3.286,3.286,0,0,0,5.7,15.309,3.274,3.274,0,0,1,4.217,14.9c0,.014,0,.028,0,.042A3.285,3.285,0,0,0,6.85,18.157a3.3,3.3,0,0,1-.865.115,3.253,3.253,0,0,1-.618-.059,3.286,3.286,0,0,0,3.066,2.279,6.625,6.625,0,0,1-4.86,1.359,9.336,9.336,0,0,0,14.372-7.863q0-.213-.009-.425A6.648,6.648,0,0,0,19.574,11.865Z" transform="translate(5.283 -1.326)" fill="#f5e0b7"/>
  </g>
</svg>
