<svg id="flat" xmlns="http://www.w3.org/2000/svg" width="60" height="60" viewBox="0 0 60 60">
  <g id="whatsapp">
    <path id="Path_51" data-name="Path 51" d="M30,60A30,30,0,1,0,0,30,30,30,0,0,0,30,60Z" fill="#846227" fill-rule="evenodd"/>
    <path id="Path_52" data-name="Path 52" d="M30.071,46.221a16.341,16.341,0,0,1-7.886-2.014l-9.032,2.87L16.1,38.392a16.022,16.022,0,0,1-2.341-8.358A16.314,16.314,0,1,1,30.071,46.221Zm0-29.8A13.678,13.678,0,0,0,16.356,30.034a13.471,13.471,0,0,0,2.612,7.979l-1.713,5.054,5.27-1.675a13.646,13.646,0,1,0,7.546-24.968Zm8.238,17.338c-.1-.165-.367-.265-.766-.463s-2.367-1.159-2.733-1.29-.634-.2-.9.2-1.033,1.29-1.266,1.555-.466.3-.866.1a10.941,10.941,0,0,1-3.216-1.969,11.947,11.947,0,0,1-2.224-2.747c-.233-.4-.025-.611.175-.809.18-.178.4-.463.6-.695a2.682,2.682,0,0,0,.4-.662.725.725,0,0,0-.033-.7c-.1-.2-.9-2.151-1.233-2.945s-.666-.662-.9-.662-.5-.033-.767-.033a1.476,1.476,0,0,0-1.067.5,4.437,4.437,0,0,0-1.4,3.309,7.677,7.677,0,0,0,1.633,4.1c.2.264,2.766,4.4,6.83,5.99s4.066,1.059,4.8.992a4.043,4.043,0,0,0,2.7-1.886,3.306,3.306,0,0,0,.233-1.887Z" fill="#fff" fill-rule="evenodd"/>
  </g>
</svg>
