<svg xmlns="http://www.w3.org/2000/svg" width="41.552" height="16.763" viewBox="0 0 41.552 16.763">
  <g id="icon_wheat" transform="translate(-399.203 -43.43)">
    <path id="Path_11" data-name="Path 11" d="M399.53,46.708s18.875-16.319,33.309-4.036" transform="translate(0 12.042)" fill="none" stroke="#846227" stroke-miterlimit="10" stroke-width="1"/>
    <path id="Path_77" data-name="Path 77" d="M2.38,0A2.523,2.523,0,0,1,4.76,2.645,2.523,2.523,0,0,1,2.38,5.29,2.523,2.523,0,0,1,0,2.645,2.523,2.523,0,0,1,2.38,0Z" transform="translate(415.832 50.605)" fill="none" stroke="#846227" stroke-width="1"/>
    <path id="Path_76" data-name="Path 76" d="M2.38,0A2.523,2.523,0,0,1,4.76,2.645,2.523,2.523,0,0,1,2.38,5.29,2.523,2.523,0,0,1,0,2.645,2.523,2.523,0,0,1,2.38,0Z" transform="translate(421.399 50.743)" fill="none" stroke="#846227" stroke-width="1"/>
    <path id="Path_75" data-name="Path 75" d="M2.38,0A2.523,2.523,0,0,1,4.76,2.645,2.523,2.523,0,0,1,2.38,5.29,2.523,2.523,0,0,1,0,2.645,2.523,2.523,0,0,1,2.38,0Z" transform="translate(426.79 52.537)" fill="none" stroke="#846227" stroke-width="1"/>
    <path id="Path_74" data-name="Path 74" d="M2.38,0A2.523,2.523,0,0,1,4.76,2.645,2.523,2.523,0,0,1,2.38,5.29,2.523,2.523,0,0,1,0,2.645,2.523,2.523,0,0,1,2.38,0Z" transform="translate(432.865 52.782)" fill="none" stroke="#846227" stroke-width="1"/>
    <path id="Path_73" data-name="Path 73" d="M2.38,0A2.523,2.523,0,0,1,4.76,2.645,2.523,2.523,0,0,1,2.38,5.29,2.523,2.523,0,0,1,0,2.645,2.523,2.523,0,0,1,2.38,0Z" transform="translate(429.398 47.375)" fill="none" stroke="#846227" stroke-width="1"/>
    <path id="Path_72" data-name="Path 72" d="M2.38,0A2.523,2.523,0,0,1,4.76,2.645,2.523,2.523,0,0,1,2.38,5.29,2.523,2.523,0,0,1,0,2.645,2.523,2.523,0,0,1,2.38,0Z" transform="translate(424.362 45.213)" fill="none" stroke="#846227" stroke-width="1"/>
    <path id="Path_71" data-name="Path 71" d="M2.38,0A2.523,2.523,0,0,1,4.76,2.645,2.523,2.523,0,0,1,2.38,5.29,2.523,2.523,0,0,1,0,2.645,2.523,2.523,0,0,1,2.38,0Z" transform="translate(418.508 44.387)" fill="none" stroke="#846227" stroke-width="1"/>
    <path id="Path_70" data-name="Path 70" d="M0,0,3.064,1.548" transform="translate(437.466 56.217)" fill="none" stroke="#846227" stroke-width="1"/>
    <path id="Path_69" data-name="Path 69" d="M0,.942,2.261,0" transform="translate(434.115 48.113)" fill="none" stroke="#846227" stroke-width="1"/>
    <path id="Path_68" data-name="Path 68" d="M0,.929,2.229,0" transform="translate(428.346 44.968)" fill="none" stroke="#846227" stroke-width="1"/>
    <path id="Path_67" data-name="Path 67" d="M0,.942,2.261,0" transform="translate(422.175 43.892)" fill="none" stroke="#846227" stroke-width="1"/>
    <path id="Path_66" data-name="Path 66" d="M0,0,1.192,2.346" transform="translate(430.171 57.621)" fill="none" stroke="#846227" stroke-width="1"/>
    <path id="Path_65" data-name="Path 65" d="M0,0,1.022,2.428" transform="translate(424.592 55.97)" fill="none" stroke="#846227" stroke-width="1"/>
    <path id="Path_64" data-name="Path 64" d="M0,0,1.261,2.513" transform="translate(419.07 55.691)" fill="none" stroke="#846227" stroke-width="1"/>
  </g>
</svg>
