<svg xmlns="http://www.w3.org/2000/svg" width="30" height="30" viewBox="0 0 30 30">
  <g id="Group_111" data-name="Group 111" transform="translate(0.211)">
    <circle id="Ellipse_29" data-name="Ellipse 29" cx="15" cy="15" r="15" transform="translate(-0.211)" fill="#846227"/>
    <path id="instagram" d="M16.327,4.831H6.511A3.1,3.1,0,0,0,3.419,7.923v9.816a3.1,3.1,0,0,0,3.092,3.092h9.816a3.1,3.1,0,0,0,3.092-3.092V7.923A3.1,3.1,0,0,0,16.327,4.831Zm.887,1.844h.354V9.386l-2.7.009-.009-2.712ZM9.135,11.189A2.811,2.811,0,1,1,8.6,12.831,2.815,2.815,0,0,1,9.135,11.189Zm8.725,6.55a1.534,1.534,0,0,1-1.533,1.533H6.511a1.534,1.534,0,0,1-1.533-1.533v-6.55H7.366a4.375,4.375,0,1,0,8.1,0H17.86Z" transform="translate(3.82 2.169)" fill="#f5e0b7"/>
  </g>
</svg>
