<svg xmlns="http://www.w3.org/2000/svg" width="199.339" height="199.339" viewBox="0 0 199.339 199.339">
  <g id="Group_251" data-name="Group 251" transform="translate(-389 -197)">
    <path id="Path_172" data-name="Path 172" d="M106.066,0,150,43.934v62.132L106.066,150H43.934L0,106.066V43.934L43.934,0Z" transform="translate(452.393 197) rotate(25)" fill="#846227"/>
    <path id="Path_169" data-name="Path 169" d="M21.308-22.7l-5.578.615a4.063,4.063,0,0,0-1.066-2.543,3.108,3.108,0,0,0-2.235-.82A3.775,3.775,0,0,0,9.341-23.81Q8.08-22.169,7.752-16.98A6.737,6.737,0,0,1,13.1-19.523a8.173,8.173,0,0,1,6.183,2.748,9.963,9.963,0,0,1,2.574,7.1,10.177,10.177,0,0,1-2.707,7.4A9.265,9.265,0,0,1,12.2.513,9.3,9.3,0,0,1,4.717-3.025q-2.933-3.538-2.933-11.6,0-8.265,3.056-11.915a9.864,9.864,0,0,1,7.937-3.65,8.426,8.426,0,0,1,5.67,1.917A8.986,8.986,0,0,1,21.308-22.7ZM8.244-10.131A6.531,6.531,0,0,0,9.536-5.793a3.8,3.8,0,0,0,2.953,1.528,3.36,3.36,0,0,0,2.666-1.251,6.3,6.3,0,0,0,1.066-4.1,6.6,6.6,0,0,0-1.148-4.3A3.6,3.6,0,0,0,12.2-15.278a3.606,3.606,0,0,0-2.81,1.3A5.655,5.655,0,0,0,8.244-10.131Z" transform="translate(477.216 312.188)" fill="#fff"/>
  </g>
</svg>
