<svg xmlns="http://www.w3.org/2000/svg" width="199.339" height="199.339" viewBox="0 0 199.339 199.339">
  <g id="Group_253" data-name="Group 253" transform="translate(-144 -197)">
    <g id="Group_252" data-name="Group 252">
      <path id="Path_173" data-name="Path 173" d="M106.066,0,150,43.934v62.132L106.066,150H43.934L0,106.066V43.934L43.934,0Z" transform="translate(207.393 197) rotate(25)" fill="#846227"/>
    </g>
    <path id="Path_168" data-name="Path 168" d="M21.246-5.353V0H1.046A13.912,13.912,0,0,1,3.015-5.752,38.28,38.28,0,0,1,9.5-12.961a40.761,40.761,0,0,0,4.778-4.922,6.34,6.34,0,0,0,1.189-3.527,4.01,4.01,0,0,0-1.036-2.963,3.866,3.866,0,0,0-2.861-1.036A3.839,3.839,0,0,0,8.7-24.322a5.582,5.582,0,0,0-1.23,3.609l-5.742-.574q.513-4.758,3.22-6.829a10.811,10.811,0,0,1,6.768-2.071,9.781,9.781,0,0,1,6.993,2.4,7.87,7.87,0,0,1,2.543,5.968,10.389,10.389,0,0,1-.728,3.866,15.721,15.721,0,0,1-2.307,3.845,36.92,36.92,0,0,1-3.773,3.835q-2.728,2.5-3.456,3.322A9.948,9.948,0,0,0,9.8-5.353ZM35.724-30.187a8.215,8.215,0,0,1,6.829,3.117q2.933,3.691,2.933,12.243,0,8.531-2.953,12.264A8.2,8.2,0,0,1,35.724.513a8.6,8.6,0,0,1-7.075-3.374q-2.687-3.374-2.687-12.028,0-8.49,2.953-12.223A8.2,8.2,0,0,1,35.724-30.187Zm0,4.778a2.879,2.879,0,0,0-1.866.667,4.474,4.474,0,0,0-1.271,2.389,32.953,32.953,0,0,0-.595,7.526,32.711,32.711,0,0,0,.533,7.27,5.112,5.112,0,0,0,1.343,2.635,2.866,2.866,0,0,0,1.856.656,2.879,2.879,0,0,0,1.866-.667,4.474,4.474,0,0,0,1.271-2.389,32.662,32.662,0,0,0,.595-7.506,32.711,32.711,0,0,0-.533-7.27,5.183,5.183,0,0,0-1.343-2.646A2.839,2.839,0,0,0,35.724-25.409ZM58.015-4.327v-7.813H50.14v-5.394h7.875v-7.813h5.25v7.813h7.9v5.394h-7.9v7.813Z" transform="translate(207.954 312.188)" fill="#fff"/>
  </g>
</svg>
