<svg id="black" xmlns="http://www.w3.org/2000/svg" width="15" height="15" viewBox="0 0 15 15">
  <g id="linkedin">
    <path id="Path_62" data-name="Path 62" d="M3.2,14.154V4.234H.147v9.92ZM3.2.718A1.5,1.5,0,0,0,1.635-.846,1.509,1.509,0,0,0,.053.718,1.5,1.5,0,0,0,1.6,2.281h.018A1.51,1.51,0,0,0,3.2.718Zm4.98,13.436V8.5a2.309,2.309,0,0,1,.11-.821,1.834,1.834,0,0,1,1.718-1.231A1.825,1.825,0,0,1,11.98,8.5v5.652h3.073v-5.8C15.053,5.242,13.4,3.8,11.2,3.8A3.333,3.333,0,0,0,8.157,5.5l.022-1.327H5.111c.044.95,0,9.98,0,9.98Z" transform="translate(-0.053 0.846)" fill="#f5e0b7" fill-rule="evenodd"/>
  </g>
</svg>
