<svg xmlns="http://www.w3.org/2000/svg" width="33" height="33" viewBox="0 0 33 33">
  <path id="Path_52" data-name="Path 52" d="M29.954,46a16.227,16.227,0,0,1-7.831-2l-8.969,2.85,2.924-8.625a15.911,15.911,0,0,1-2.324-8.3A16.2,16.2,0,1,1,29.954,46Zm0-29.59a13.583,13.583,0,0,0-13.62,13.515,13.377,13.377,0,0,0,2.594,7.924l-1.7,5.019L22.46,41.2a13.551,13.551,0,1,0,7.494-24.794Zm8.18,17.217c-.1-.164-.364-.263-.761-.46s-2.35-1.151-2.714-1.281-.63-.2-.894.2-1.026,1.281-1.258,1.544-.463.3-.86.1a10.865,10.865,0,0,1-3.194-1.955,11.864,11.864,0,0,1-2.209-2.728c-.232-.394-.025-.607.174-.8.179-.177.4-.46.6-.69a2.663,2.663,0,0,0,.4-.657.72.72,0,0,0-.033-.69c-.1-.2-.894-2.136-1.225-2.925s-.661-.657-.893-.657-.5-.033-.761-.033a1.466,1.466,0,0,0-1.059.493,4.406,4.406,0,0,0-1.389,3.286,7.624,7.624,0,0,0,1.621,4.075c.2.263,2.746,4.371,6.783,5.948s4.038,1.051,4.766.986A4.015,4.015,0,0,0,37.9,35.5a3.283,3.283,0,0,0,.232-1.874Z" transform="translate(-13.154 -13.846)" fill="#fff" fill-rule="evenodd"/>
</svg>
