<svg id="Group_35" data-name="Group 35" xmlns="http://www.w3.org/2000/svg" width="22" height="22" viewBox="0 0 22 22">
  <path id="Path_46" data-name="Path 46" d="M42.4,31.3c.17-.153.29-.174.882-.156.311.01.762.045,1.01.074a10.319,10.319,0,0,1,3.37.976,9.177,9.177,0,0,1,2.712,1.914,8.656,8.656,0,0,1,1.853,2.489,11.689,11.689,0,0,1,1.182,4.868c.025.622.007.761-.138.937a.681.681,0,0,1-1.09-.1,1.652,1.652,0,0,1-.106-.736,12.513,12.513,0,0,0-.2-1.846,8.469,8.469,0,0,0-3.373-5.481A8.978,8.978,0,0,0,43.4,32.473c-.692-.038-.811-.064-.968-.181A.684.684,0,0,1,42.4,31.3Zm4.333,4.573a7.06,7.06,0,0,0-2.795-.82.934.934,0,0,1-.687-.252A.636.636,0,0,1,43.2,34c.189-.287.479-.334,1.348-.206a7.058,7.058,0,0,1,5.035,2.944,6.938,6.938,0,0,1,1.157,3.146,5.76,5.76,0,0,1-.005,1.32.81.81,0,0,1-.33.352.833.833,0,0,1-.611-.022c-.279-.138-.363-.359-.363-.955a5.578,5.578,0,0,0-.665-2.641A5.46,5.46,0,0,0,46.736,35.87ZM47.965,40.6a.719.719,0,0,1-.851.018c-.173-.129-.229-.264-.269-.629a3.263,3.263,0,0,0-.284-1.143,2.062,2.062,0,0,0-1.835-1.133c-.447-.052-.582-.1-.727-.27a.653.653,0,0,1,.2-.994.806.806,0,0,1,.5-.056,4.935,4.935,0,0,1,.618.074,3.378,3.378,0,0,1,2.814,3.046C48.234,40.149,48.194,40.4,47.965,40.6Zm5.43,9.328a7.881,7.881,0,0,1-2.046,2.492,2.948,2.948,0,0,1-1.75.707,2.612,2.612,0,0,1-1.369-.281,28.768,28.768,0,0,1-12.416-9.338,26.333,26.333,0,0,1-3.858-6.853c-.511-1.38-.536-1.98-.115-2.688a8,8,0,0,1,1.521-1.447,5.317,5.317,0,0,1,1.714-1.006,2.007,2.007,0,0,1,.909.082,2.44,2.44,0,0,1,.436.213,17.269,17.269,0,0,1,3.242,4.051,2.216,2.216,0,0,1,.367,1.569c-.117.4-.31.618-1.17,1.3a6.248,6.248,0,0,0-.72.629,1.624,1.624,0,0,0-.237.8,5.884,5.884,0,0,0,.913,2.5,10.743,10.743,0,0,0,1.825,2.1,10.042,10.042,0,0,0,2.4,1.655c1.064.518,1.716.649,2.191.433a1.625,1.625,0,0,0,.287-.156c.036-.032.316-.366.622-.735.588-.724.724-.841,1.127-.976a1.984,1.984,0,0,1,1.563.138c.4.2,1.273.732,1.835,1.115a26.961,26.961,0,0,1,2.542,2.024A1.581,1.581,0,0,1,53.395,49.931Z" transform="translate(-31.548 -31.136)" fill="#fff"/>
</svg>
