<svg xmlns="http://www.w3.org/2000/svg" width="85" height="85" viewBox="0 0 85 85">
  <g id="Group_7" data-name="Group 7" transform="translate(0 0.099)">
    <g id="Path_174" data-name="Path 174" transform="translate(0 43.881) rotate(-47)" fill="#fff">
      <path d="M 59.13446426391602 59.14428329467773 L 1.069018363952637 59.07643127441406 L 1.001174807548523 1.001176476478577 L 59.06660842895508 1.069019675254822 L 59.13446426391602 59.14428329467773 Z" stroke="none"/>
      <path d="M 2.002334594726562 2.002338409423828 L 2.067852020263672 58.07759857177734 L 58.13328170776367 58.14310455322266 L 58.06777572631836 2.067852020263672 L 2.002334594726562 2.002338409423828 M -7.62939453125e-06 -3.814697265625e-06 L 60.06544494628906 0.07018661499023438 L 60.13562393188477 60.14544677734375 L 0.07018280029296875 60.07526397705078 L -7.62939453125e-06 -3.814697265625e-06 Z" stroke="none" fill="#846227"/>
    </g>
    <g id="Group_6" data-name="Group 6" transform="translate(38.503 22.258)">
      <g id="Group_5" data-name="Group 5">
        <path id="Path_33" data-name="Path 33" d="M0,25Z" fill="#846227" stroke="#846227" stroke-width="2"/>
        <path id="Path_28" data-name="Path 28" d="M276.415,561.428l5,4.283L286,561.428v20.394" transform="translate(-276 -561.428)" fill="#fff" stroke="#846227" stroke-width="2"/>
        <path id="Path_29" data-name="Path 29" d="M286,561.428l-4.586,4.283-5-4.283" transform="translate(-276 -555.428)" fill="#fff" stroke="#846227" stroke-width="2"/>
        <path id="Path_30" data-name="Path 30" d="M286,561.428l-4.586,4.283-5-4.283" transform="translate(-276 -549.639)" fill="#fff" stroke="#846227" stroke-width="2"/>
        <path id="Path_31" data-name="Path 31" d="M286,561.428l-4.586,4.283-5-4.283" transform="translate(-276 -543.744)" fill="#fff" stroke="#846227" stroke-width="2"/>
        <path id="Path_32" data-name="Path 32" d="M286,561.428v.212l-4.586,4.072-5-4.283" transform="translate(-276 -537.849)" fill="#fff" stroke="#846227" stroke-width="2"/>
        <path id="Path_34" data-name="Path 34" d="M281.3,585.712V618.6" transform="translate(-275.885 -557.849)" fill="#fff" stroke="#846227" stroke-width="2"/>
      </g>
      <path id="Path_35" data-name="Path 35" d="M226,579.546v-4.111" transform="translate(-216 -555.858)" fill="#fff" stroke="#846227" stroke-width="2"/>
    </g>
  </g>
</svg>
