<svg xmlns="http://www.w3.org/2000/svg" width="60" height="60" viewBox="0 0 60 60">
  <g id="iconfinder_social-41_1591886" transform="translate(0.234)">
    <circle id="Ellipse_22" data-name="Ellipse 22" cx="30" cy="30" r="30" transform="translate(-0.234)" fill="#846227"/>
    <g id="Group_35" data-name="Group 35" transform="translate(19.896 18.668)">
      <path id="Path_46" data-name="Path 46" d="M42.447,31.3c.171-.156.291-.178.886-.16.312.011.766.047,1.015.076a10.219,10.219,0,0,1,3.384,1,9.216,9.216,0,0,1,2.723,1.958,8.843,8.843,0,0,1,1.861,2.545A12.134,12.134,0,0,1,53.5,41.7c.025.636.007.778-.138.958a.677.677,0,0,1-1.095-.1,1.717,1.717,0,0,1-.107-.753,13.026,13.026,0,0,0-.2-1.888,8.685,8.685,0,0,0-3.386-5.606,8.909,8.909,0,0,0-5.131-1.8c-.694-.039-.815-.065-.971-.185A.709.709,0,0,1,42.447,31.3Zm4.35,4.676a6.994,6.994,0,0,0-2.806-.838.929.929,0,0,1-.69-.258.66.66,0,0,1-.055-.821c.19-.293.481-.341,1.353-.211a7.064,7.064,0,0,1,5.055,3.011,7.178,7.178,0,0,1,1.162,3.217,6,6,0,0,1-.005,1.35.661.661,0,0,1-.945.338c-.28-.141-.365-.367-.365-.976a5.789,5.789,0,0,0-.667-2.7A5.536,5.536,0,0,0,46.8,35.978Zm1.234,4.84a.712.712,0,0,1-.855.018c-.174-.132-.23-.27-.27-.643a3.387,3.387,0,0,0-.285-1.169,2.068,2.068,0,0,0-1.843-1.159c-.448-.054-.584-.1-.73-.276a.675.675,0,0,1,.2-1.017.8.8,0,0,1,.5-.057,4.869,4.869,0,0,1,.62.076,3.493,3.493,0,0,1,1.741.864A3.586,3.586,0,0,1,48.2,39.706C48.3,40.353,48.261,40.607,48.031,40.818Zm5.452,9.539a8.032,8.032,0,0,1-2.054,2.548,2.93,2.93,0,0,1-1.757.723,2.581,2.581,0,0,1-1.375-.287,28.942,28.942,0,0,1-12.466-9.55,27.071,27.071,0,0,1-3.873-7.008c-.513-1.412-.538-2.025-.116-2.749a8.1,8.1,0,0,1,1.527-1.48,5.313,5.313,0,0,1,1.721-1.029A1.98,1.98,0,0,1,36,31.61a2.431,2.431,0,0,1,.438.218A17.6,17.6,0,0,1,39.7,35.97a2.3,2.3,0,0,1,.369,1.6c-.117.413-.311.632-1.175,1.326a6.312,6.312,0,0,0-.723.643,1.684,1.684,0,0,0-.238.82,6.09,6.09,0,0,0,.916,2.553,10.932,10.932,0,0,0,1.833,2.146,10.079,10.079,0,0,0,2.406,1.692c1.068.53,1.723.664,2.2.442a1.623,1.623,0,0,0,.288-.16c.037-.033.317-.374.625-.751.591-.741.727-.861,1.131-1a1.959,1.959,0,0,1,1.569.141c.4.208,1.278.749,1.843,1.14a27.162,27.162,0,0,1,2.552,2.07A1.641,1.641,0,0,1,53.483,50.357Z" transform="translate(-31.548 -31.136)" fill="#fff"/>
    </g>
  </g>
</svg>
