<svg xmlns="http://www.w3.org/2000/svg" viewBox="0 0 121 52"><defs><style>.cls-1,.cls-2{fill:none;stroke:#000;stroke-miterlimit:10;}.cls-1{stroke-width:2px;}.cls-2{stroke-width:0.25px;}</style></defs><title>Asset 8</title><g id="Layer_2" data-name="Layer 2"><g id="Layer_1-2" data-name="Layer 1"><ellipse class="cls-1" cx="114.35" cy="21.48" rx="4.72" ry="1.83" transform="translate(3.34 56.34) rotate(-28.07)"/><ellipse class="cls-1" cx="114.35" cy="28.71" rx="4.72" ry="1.83" transform="translate(-0.06 57.19) rotate(-28.07)"/><ellipse class="cls-1" cx="114.35" cy="35.94" rx="4.72" ry="1.83" transform="translate(-3.46 58.04) rotate(-28.07)"/><ellipse class="cls-1" cx="102.86" cy="35.94" rx="1.83" ry="4.72" transform="translate(22.75 109.79) rotate(-61.93)"/><ellipse class="cls-1" cx="102.86" cy="28.71" rx="1.83" ry="4.72" transform="translate(29.13 105.96) rotate(-61.93)"/><ellipse class="cls-1" cx="102.86" cy="21.48" rx="1.83" ry="4.72" transform="translate(35.5 102.14) rotate(-61.93)"/><line class="cls-1" x1="108.61" y1="19.68" x2="108.61" y2="50.39"/><ellipse class="cls-1" cx="108.61" cy="15.16" rx="1.91" ry="4.52"/><polyline class="cls-1" points="98.13 1 1 1 1 51 121 51"/><path d="M29,21.5a5.87,5.87,0,0,1-2.22,4.85,9.73,9.73,0,0,1-6.2,1.77,14.68,14.68,0,0,1-6.47-1.37V22.28A27,27,0,0,0,18,23.72a11.56,11.56,0,0,0,2.93.42,4.19,4.19,0,0,0,2.44-.6,2.08,2.08,0,0,0,.85-1.81,2,2,0,0,0-.37-1.18,4.37,4.37,0,0,0-1.1-1,28.72,28.72,0,0,0-3-1.53,13.7,13.7,0,0,1-3.14-1.88A7.08,7.08,0,0,1,15,14a6,6,0,0,1-.62-2.79A5.88,5.88,0,0,1,16.42,6.5,8.58,8.58,0,0,1,22.1,4.78a13.48,13.48,0,0,1,3.4.42,23.3,23.3,0,0,1,3.39,1.18l-1.57,3.74a22.87,22.87,0,0,0-3-1A9.65,9.65,0,0,0,22,8.78a3.15,3.15,0,0,0-2.11.64,2.11,2.11,0,0,0-.74,1.66,2,2,0,0,0,.3,1.11,3.22,3.22,0,0,0,1,.92,30.41,30.41,0,0,0,3.07,1.59,12.41,12.41,0,0,1,4.39,3.05A5.94,5.94,0,0,1,29,21.5Z"/><path d="M42,27.81H37.11V9.11H30.9v-4H48.15v4H42Z"/><path d="M61.34,27.81,55.84,10H55.7q.3,5.43.3,7.25V27.81H51.67V5.1h6.59l5.41,17.36h.09L69.5,5.1h6.59V27.81H71.57V17.06c0-.51,0-1.09,0-1.75s.08-2.43.21-5.28h-.14L65.78,27.81Z"/><path d="M20.46,45.23a7,7,0,0,0,1.91-.34v2.2a7,7,0,0,1-2.79.5,3.45,3.45,0,0,1-2.65-.9A3.82,3.82,0,0,1,16.1,44V38.76H14.65V37.51l1.67-1,.87-2.29h1.94v2.31h3.12v2.22H19.13V44a1.12,1.12,0,0,0,.37.93A1.45,1.45,0,0,0,20.46,45.23Z"/><path d="M30.83,36.34a4.82,4.82,0,0,1,1,.09l-.23,2.77a3.73,3.73,0,0,0-.9-.1,3.3,3.3,0,0,0-2.26.73,2.62,2.62,0,0,0-.81,2v5.52h-3V36.54h2.3l.44,1.83h.15a4.11,4.11,0,0,1,1.4-1.47A3.44,3.44,0,0,1,30.83,36.34Z"/><path d="M40.93,47.39l-.58-1.47h-.08a4.5,4.5,0,0,1-1.58,1.3,5.25,5.25,0,0,1-2.11.37,3.48,3.48,0,0,1-2.53-.9,3.38,3.38,0,0,1-.92-2.54,2.86,2.86,0,0,1,1.24-2.55,7.32,7.32,0,0,1,3.74-.9L40,40.64v-.48c0-1.1-.58-1.65-1.73-1.65a8,8,0,0,0-3.14.79l-1-2a9.27,9.27,0,0,1,4.26-1,5.43,5.43,0,0,1,3.43,1,3.46,3.46,0,0,1,1.19,2.89v7.23Zm-.89-5-1.18,0a3.92,3.92,0,0,0-2,.47,1.46,1.46,0,0,0-.64,1.3c0,.83.49,1.25,1.47,1.25a2.37,2.37,0,0,0,1.69-.59A2.06,2.06,0,0,0,40,43.26Z"/><path d="M49.7,47.59a3.65,3.65,0,0,1-3.08-1.49A6.67,6.67,0,0,1,45.5,42a6.7,6.7,0,0,1,1.14-4.16,3.72,3.72,0,0,1,3.14-1.49A3.64,3.64,0,0,1,53,37.93h.1a12,12,0,0,1-.22-2.16V32.29h3v15.1H53.57L53,46h-.12A3.53,3.53,0,0,1,49.7,47.59Zm1.07-2.36a2.07,2.07,0,0,0,1.7-.66,3.76,3.76,0,0,0,.59-2.24V42a4.36,4.36,0,0,0-.55-2.51,2.1,2.1,0,0,0-1.8-.76,1.8,1.8,0,0,0-1.57.84A4.38,4.38,0,0,0,48.57,42a4.26,4.26,0,0,0,.57,2.41A1.88,1.88,0,0,0,50.77,45.23Z"/><path d="M64.11,47.59a5.85,5.85,0,0,1-4.2-1.45A5.39,5.39,0,0,1,58.4,42a5.92,5.92,0,0,1,1.39-4.21,5,5,0,0,1,3.87-1.49,5,5,0,0,1,3.67,1.31,4.87,4.87,0,0,1,1.32,3.62v1.44H61.47a2.85,2.85,0,0,0,.77,2,2.73,2.73,0,0,0,2,.7,8.93,8.93,0,0,0,1.9-.2A10,10,0,0,0,68,44.53v2.29a7.41,7.41,0,0,1-1.7.58A11.51,11.51,0,0,1,64.11,47.59Zm-.43-9.14a1.93,1.93,0,0,0-1.51.59,2.67,2.67,0,0,0-.63,1.69H65.8A2.4,2.4,0,0,0,65.21,39,2,2,0,0,0,63.68,38.45Z"/><line class="cls-2" x1="72.29" y1="51.85" x2="72.28" y2="51.85"/></g></g></svg>