<svg xmlns="http://www.w3.org/2000/svg" width="121" height="52" viewBox="0 0 121 52">
  <g id="LOGO" transform="translate(-54.694 -53)">
    <g id="logo_plant">
      <path id="Ellipse_15" data-name="Ellipse 15" d="M4.72,0C7.327,0,9.44.819,9.44,1.83S7.327,3.66,4.72,3.66,0,2.841,0,1.83,2.113,0,4.72,0Z" transform="translate(164.015 75.092) rotate(-28.07)" fill="none" stroke="#846227" stroke-width="2"/>
      <path id="Ellipse_16" data-name="Ellipse 16" d="M4.72,0C7.327,0,9.44.819,9.44,1.83S7.327,3.66,4.72,3.66,0,2.841,0,1.83,2.113,0,4.72,0Z" transform="translate(164.017 82.322) rotate(-28.07)" fill="none" stroke="#846227" stroke-width="2"/>
      <path id="Ellipse_17" data-name="Ellipse 17" d="M4.72,0C7.327,0,9.44.819,9.44,1.83S7.327,3.66,4.72,3.66,0,2.841,0,1.83,2.113,0,4.72,0Z" transform="translate(164.019 89.551) rotate(-28.07)" fill="none" stroke="#846227" stroke-width="2"/>
      <path id="Ellipse_18" data-name="Ellipse 18" d="M1.83,0C2.841,0,3.66,2.113,3.66,4.72S2.841,9.44,1.83,9.44,0,7.327,0,4.72.819,0,1.83,0Z" transform="translate(152.531 88.335) rotate(-61.93)" fill="none" stroke="#846227" stroke-width="2"/>
      <path id="Ellipse_19" data-name="Ellipse 19" d="M1.83,0C2.841,0,3.66,2.113,3.66,4.72S2.841,9.44,1.83,9.44,0,7.327,0,4.72.819,0,1.83,0Z" transform="translate(152.532 81.103) rotate(-61.93)" fill="none" stroke="#846227" stroke-width="2"/>
      <path id="Ellipse_20" data-name="Ellipse 20" d="M1.83,0C2.841,0,3.66,2.113,3.66,4.72S2.841,9.44,1.83,9.44,0,7.327,0,4.72.819,0,1.83,0Z" transform="translate(152.522 73.881) rotate(-61.93)" fill="none" stroke="#846227" stroke-width="2"/>
      <path id="Line_3" data-name="Line 3" d="M0,0V30.71" transform="translate(163.304 72.68)" fill="none" stroke="#846227" stroke-width="2"/>
      <path id="Ellipse_21" data-name="Ellipse 21" d="M1.91,0C2.965,0,3.82,2.024,3.82,4.52S2.965,9.04,1.91,9.04,0,7.016,0,4.52.855,0,1.91,0Z" transform="translate(161.394 63.64)" fill="none" stroke="#846227" stroke-width="2"/>
    </g>
    <g id="logo_sign" transform="translate(0 1)">
      <path id="Path_164" data-name="Path 164" d="M16.359,27.667a5.911,5.911,0,0,1-2.227,4.878,9.668,9.668,0,0,1-6.2,1.782,14.542,14.542,0,0,1-6.469-1.376v-4.5A26.646,26.646,0,0,0,5.383,29.9a11.575,11.575,0,0,0,2.93.422,4.163,4.163,0,0,0,2.445-.61,2.086,2.086,0,0,0,.852-1.814,2,2,0,0,0-.375-1.2,4.2,4.2,0,0,0-1.1-1.008,28.325,28.325,0,0,0-2.961-1.548,14.033,14.033,0,0,1-3.141-1.892,7.1,7.1,0,0,1-1.672-2.111,6.027,6.027,0,0,1-.625-2.814,5.91,5.91,0,0,1,2.055-4.769,8.534,8.534,0,0,1,5.68-1.736,13.4,13.4,0,0,1,3.4.422,23.35,23.35,0,0,1,3.383,1.188l-1.562,3.768a22.85,22.85,0,0,0-3.023-1.048,9.726,9.726,0,0,0-2.352-.3A3.113,3.113,0,0,0,7.2,15.5a2.115,2.115,0,0,0-.734,1.673,2.072,2.072,0,0,0,.3,1.118,3.265,3.265,0,0,0,.945.922,29.222,29.222,0,0,0,3.07,1.6,12.217,12.217,0,0,1,4.391,3.072A6,6,0,0,1,16.359,27.667Zm12.953,6.348H24.469V15.19h-6.2V11.156h17.25V15.19h-6.2Zm19.391,0L43.2,16.082h-.141q.3,5.472.3,7.3V34.015H39.031V11.156h6.594l5.406,17.48h.094l5.734-17.48h6.594V34.015H58.938V23.2q0-.766.023-1.767t.211-5.316h-.141l-5.891,17.9Z" transform="translate(66.694 47)" fill="#846227"/>
      <path id="Path_163" data-name="Path 163" d="M7.2,21.164H4.219V9.272H.4V6.723H11.018V9.272H7.2Zm8.964-8.03h.962a3.6,3.6,0,0,0,2.087-.484,1.746,1.746,0,0,0,.673-1.521A1.594,1.594,0,0,0,19.2,9.667a4.081,4.081,0,0,0-2.13-.435h-.9Zm0,2.489v5.541H13.182V6.723h4.1A6.872,6.872,0,0,1,21.521,7.8,3.87,3.87,0,0,1,22.9,11.05a3.9,3.9,0,0,1-.683,2.267,4.54,4.54,0,0,1-1.933,1.556q3.174,4.87,4.136,6.292H21.107l-3.357-5.541Zm18.629,5.541-1.019-3.437H28.647l-1.019,3.437H24.416l4.963-14.5h3.645l4.982,14.5Zm-1.731-6.005q-1.414-4.672-1.592-5.284t-.255-.968Q30.9,10.171,29.4,15.159Zm18.379-1.353a7.218,7.218,0,0,1-1.976,5.462,7.925,7.925,0,0,1-5.708,1.9H39.775V6.723h4.414A7.315,7.315,0,0,1,49.537,8.59,6.97,6.97,0,0,1,51.441,13.805Zm-3.1.079q0-4.652-4-4.652H42.756v9.4h1.279Q48.344,18.635,48.344,13.884Zm14.109,7.28h-8.1V6.723h8.1V9.232H57.337V12.4H62.1v2.509H57.337v3.724h5.117Z" transform="translate(67.694 78)" fill="#846227"/>
    </g>
    <path id="Path_19" data-name="Path 19" d="M98.13,1H1V51H121" transform="translate(54.694 53)" fill="none" stroke="#846227" stroke-miterlimit="10" stroke-width="2"/>
  </g>
</svg>
